<svg width="32" height="32" viewBox="0 0 32 32" fill="none" xmlns="http://www.w3.org/2000/svg">
<g id="fa6-solid:xmark" clip-path="url(#clip0_37_93)">
<path id="Vector" d="M31.0602 9.4125C32.3102 8.63125 32.3102 7.3625 31.0602 6.58125C29.8102 5.8 27.7802 5.8 26.5302 6.58125L16.0002 13.1688L5.46018 6.5875C4.21018 5.80625 2.18018 5.80625 0.930176 6.5875C-0.319824 7.36875 -0.319824 8.6375 0.930176 9.41875L11.4702 16L0.940176 22.5875C-0.309824 23.3688 -0.309824 24.6375 0.940176 25.4188C2.19018 26.2 4.22018 26.2 5.47018 25.4188L16.0002 18.8313L26.5402 25.4125C27.7902 26.1938 29.8202 26.1938 31.0702 25.4125C32.3202 24.6313 32.3202 23.3625 31.0702 22.5813L20.5302 16L31.0602 9.4125Z" fill="white"/>
</g>
<defs>
<clipPath id="clip0_37_93">
<rect width="32" height="32" fill="white"/>
</clipPath>
</defs>
</svg>
